<svg width="60" height="60" viewBox="0 0 60 60" fill="none" xmlns="http://www.w3.org/2000/svg">
<path d="M24.9998 28C15.6113 35.9826 21.5895 39.2644 33.7528 40.0891C65.076 42.2128 69.1599 52.5033 38.4443 59V59C32.7529 60.2038 19.5227 57.899 14.3703 55.1986C9.21797 52.4981 5.16768 48.0848 2.91914 42.7195C0.670598 37.3543 0.36306 31.3725 2.05034 25.8049C3.73762 20.2374 7.3139 15.4326 12.1626 12.2182C17.0113 9.00369 32.6594 0.38625 38.4441 1.00019C42.4394 1.42422 46.3512 1.68611 49.7285 3.1783C52.6248 4.458 53.4278 7.92091 52.647 10.9896V10.9896C51.9264 13.8216 49.8873 16.1338 47.1677 17.2029L35.25 21.8876C32.5267 22.958 29.9527 24.3749 27.5914 26.1031L24.9998 28Z" fill="url(#paint0_linear_9_4)"/>
<defs>
<linearGradient id="paint0_linear_9_4" x1="-3.51205" y1="37.0496" x2="68.8351" y2="36.4292" gradientUnits="userSpaceOnUse">
<stop stop-color="#78E475"/>
<stop offset="1" stop-color="#3EC0BA"/>
</linearGradient>
</defs>
</svg>
